<?xml version="1.0" encoding="UTF-8"?>
<svg id="Calque_1" data-name="Calque 1" xmlns="http://www.w3.org/2000/svg" viewBox="0 0 128 128">
  <path d="M50.99,21.19c11.65,9.43,19.86,22.27,30.95,32.29,2.92,2.64,5.96,5.15,8.96,7.7,1.53,1.3,3.05,2.61,4.54,3.96.65.59,1.4,1.17,1.93,1.87.63.85.18,1.58-.3,2.4-3.44,5.96-8.99,10.31-14.65,14.04-3.51,2.31-7.11,4.46-10.71,6.63-2,1.21-4.01,2.4-6.04,3.57-1.05.6-2.1,1.2-3.16,1.78-.49.27-.99.54-1.49.81-.19.1-.48.2-.64.34-.53.47-.44-.34.12.54-1.04-1.62-3.63-.12-2.59,1.51s2.76,1.18,4.2.42c2.07-1.09,4.1-2.25,6.12-3.43,3.8-2.21,7.55-4.5,11.29-6.8,6.34-3.91,12.79-8.11,17.47-14.02,1.14-1.44,2.26-2.98,3.09-4.63.95-1.88.79-3.68-.57-5.29s-3.01-2.85-4.54-4.18c-1.63-1.42-3.29-2.81-4.94-4.21-3.33-2.82-6.65-5.66-9.75-8.75-2.85-2.84-5.52-5.84-8.16-8.87-6-6.92-11.85-14.04-19-19.83-1.49-1.2-3.62.91-2.12,2.12h0Z"/>
  <path d="M98.65,64.51c-9.41,3.06-19.32,3.17-29.11,3.39-4.93.11-9.86.25-14.77.79s-10.08,1.51-15.13,2.23c-5.68.81-11.5,1.3-17.2.45-1.89-.28-2.7,2.61-.8,2.89,10.43,1.57,20.65-.94,30.95-2.3s20.22-.8,30.31-1.56c5.6-.42,11.19-1.26,16.54-3,1.83-.59,1.05-3.49-.8-2.89h0Z"/>
</svg>