<?xml version="1.0" encoding="UTF-8"?>
<svg id="Calque_2" data-name="Calque 2" xmlns="http://www.w3.org/2000/svg" viewBox="0 0 366.25 130.84">
  <defs>
    <style>
      .cls-1 {
        fill: #585bfd;
      }
    </style>
  </defs>
  <g id="Calque_2-2" data-name="Calque 2">
    <g>
      <path class="cls-1" d="M0,130.84l.27-1.08c9.03-1.75,13.88-10.65,16.04-22.77l12.4-70.2h-10.51l.27-1.08h10.38C31.53,22.5,45.01,0,64.68,0c8.76,0,15.09,2.56,15.09,8.22,0,7.95-10.51,13.34-19.81,13.34l-.27-.4c4.58-2.69,7.28-9.84,7.28-14.69,0-2.83-.94-5.12-3.91-5.12-9.7,0-14.15,22.1-16.3,34.36h12.94l-.27,1.08h-12.94l-11.32,64.27c-3.37,19-15.36,27.49-35.17,29.78Z"/>
      <path class="cls-1" d="M58.08,73.71c0-21.69,15.36-39.35,37.06-39.35,17.65,0,27.62,10.11,27.62,27.62,0,22.37-15.23,40.42-37.06,40.42-17.38,0-27.62-10.51-27.62-28.7ZM104.43,53.23c0-10.78-2.29-17.79-9.57-17.79-12.67,0-18.46,27.49-18.46,48.1,0,10.65,2.29,17.79,9.57,17.79,12.94,0,18.46-27.49,18.46-48.1Z"/>
      <path class="cls-1" d="M131.65,73.71c0-21.69,15.36-39.35,37.06-39.35,17.65,0,27.62,10.11,27.62,27.62,0,22.37-15.23,40.42-37.06,40.42-17.38,0-27.62-10.51-27.62-28.7ZM178,53.23c0-10.78-2.29-17.79-9.57-17.79-12.67,0-18.46,27.49-18.46,48.1,0,10.65,2.29,17.79,9.57,17.79,12.94,0,18.46-27.49,18.46-48.1Z"/>
      <path class="cls-1" d="M209.13,35.71h.94c9.03,0,18.73-7.01,25.33-16.3h1.08l-2.83,16.3h12.53l-.27,1.08h-12.53l-7.82,44.87c-.4,2.96-.67,5.53-.67,7.68,0,6.47,2.29,9.16,6.33,9.16,2.7,0,4.58-1.08,6.74-3.77l.67.4c-3.64,5.39-9.57,7.28-16.04,7.28-9.16,0-15.23-4.72-15.23-15.23,0-1.89.14-3.91.54-5.93l7.68-44.47h-6.74l.27-1.08Z"/>
      <path class="cls-1" d="M296.45,84.89h1.21c-1.35,8.22-9.97,17.52-25.87,17.52-14.96,0-25.2-9.03-25.2-27.22,0-23.04,14.42-40.83,35.71-40.83,15.23,0,22.23,4.85,22.23,13.61,0,13.74-16.04,19.27-32.34,19.27h-3.91v-.94h3.77c10.65,0,17.11-9.03,17.11-21.42,0-5.39-1.48-9.43-7.01-9.43-12.67,0-17.25,20.75-17.25,37.06,0,14.01,3.5,26.01,16.3,26.01,7.95,0,14.15-7.41,15.23-13.61Z"/>
      <path class="cls-1" d="M337.28,35.71l-1.08,18.19h.27c5.93-15.9,11.18-19.54,18.86-19.54,7.28,0,10.91,3.64,10.91,9.84,0,8.08-8.89,13.61-19.27,14.55l-.27-.4c3.91-3.37,5.79-8.62,5.79-13.21,0-2.83-.81-5.12-3.77-5.12-4.45,0-7.41,3.77-12.53,17.38l-7.68,43.66h-17.79l11.32-64.27h-7.41l.27-1.08h22.37Z"/>
    </g>
  </g>
</svg>