<svg width="1185" height="280" viewBox="0 0 1185 280" fill="none" xmlns="http://www.w3.org/2000/svg">
<path d="M0 280V61.7346H41.0268V92.163L37.2171 83.3856C42.492 75.3884 49.6228 69.2442 58.6097 64.953C67.7918 60.4667 78.2439 58.2236 89.9658 58.2236C105.204 58.2236 118.978 61.9296 131.286 69.3417C143.594 76.7537 153.362 86.799 160.59 99.4775C167.819 111.961 171.433 126.005 171.433 141.609C171.433 157.018 167.819 171.062 160.59 183.741C153.557 196.419 143.887 206.465 131.579 213.877C119.271 221.289 105.302 224.995 89.6728 224.995C78.7323 224.995 68.5733 223.044 59.1957 219.143C50.0136 215.047 42.5897 209.098 36.9241 201.296L43.9572 192.226V280H0ZM84.3979 185.496C92.6033 185.496 99.8318 183.643 106.083 179.937C112.335 176.231 117.219 171.062 120.736 164.431C124.252 157.799 126.011 150.192 126.011 141.609C126.011 133.027 124.252 125.517 120.736 119.08C117.219 112.449 112.335 107.28 106.083 103.574C99.8318 99.6726 92.6033 97.722 84.3979 97.722C76.5833 97.722 69.5501 99.5751 63.2984 103.281C57.2421 106.987 52.4556 112.156 48.9391 118.788C45.6178 125.42 43.9572 133.027 43.9572 141.609C43.9572 150.192 45.6178 157.799 48.9391 164.431C52.4556 171.062 57.2421 176.231 63.2984 179.937C69.5501 183.643 76.5833 185.496 84.3979 185.496Z" fill="black"/>
<path d="M267.803 224.995C251.978 224.995 237.521 221.386 224.431 214.169C211.537 206.952 201.183 197.102 193.368 184.619C185.749 171.94 181.939 157.604 181.939 141.609C181.939 125.42 185.749 111.083 193.368 98.5998C201.183 86.1163 211.537 76.2661 224.431 69.0491C237.521 61.8321 251.978 58.2236 267.803 58.2236C283.627 58.2236 297.987 61.8321 310.881 69.0491C323.775 76.2661 334.032 86.1163 341.651 98.5998C349.465 111.083 353.373 125.42 353.373 141.609C353.373 157.604 349.465 171.94 341.651 184.619C334.032 197.102 323.775 206.952 310.881 214.169C297.987 221.386 283.627 224.995 267.803 224.995ZM267.803 185.496C275.813 185.496 282.748 183.643 288.609 179.937C294.665 176.231 299.354 171.062 302.675 164.431C306.192 157.799 307.95 150.192 307.95 141.609C307.95 133.027 306.192 125.517 302.675 119.08C299.354 112.449 294.665 107.28 288.609 103.574C282.748 99.6726 275.813 97.722 267.803 97.722C259.793 97.722 252.759 99.6726 246.703 103.574C240.647 107.28 235.86 112.449 232.344 119.08C229.023 125.517 227.362 133.027 227.362 141.609C227.362 150.192 229.023 157.799 232.344 164.431C235.86 171.062 240.647 176.231 246.703 179.937C252.759 183.643 259.793 185.496 267.803 185.496Z" fill="black"/>
<path d="M370.477 221.484V61.7346H411.504V100.063L408.573 94.5037C412.09 81.0449 417.853 71.9749 425.863 67.2936C434.069 62.4173 443.739 59.9791 454.875 59.9791H464.253V98.0146H450.479C439.734 98.0146 431.04 101.331 424.398 107.962C417.756 114.399 414.434 123.567 414.434 135.465V221.484H370.477Z" fill="black"/>
<path d="M557.522 223.239C538.181 223.239 523.138 218.07 512.393 207.732C501.843 197.2 496.568 182.571 496.568 163.845V99.7701H469.608V61.7346H471.073C479.278 61.7346 485.53 59.6865 489.828 55.5904C494.321 51.4943 496.568 45.3501 496.568 37.1578V25.4545H540.525V61.7346H578.035V99.7701H540.525V160.92C540.525 166.381 541.502 170.965 543.456 174.671C545.409 178.182 548.438 180.815 552.54 182.571C556.643 184.326 561.722 185.204 567.779 185.204C569.146 185.204 570.709 185.106 572.467 184.911C574.226 184.716 576.082 184.521 578.035 184.326V221.484C575.105 221.874 571.784 222.264 568.072 222.654C564.36 223.044 560.843 223.239 557.522 223.239Z" fill="black"/>
<path d="M614.344 221.484V99.7701H587.383V61.7346H614.344V59.3939C614.344 46.7154 616.786 35.9875 621.67 27.21C626.749 18.4326 633.978 11.7032 643.355 7.02194C652.733 2.34065 664.064 0 677.349 0C679.889 0 682.624 0.195051 685.554 0.585154C688.485 0.780217 690.927 1.0728 692.881 1.4629V38.9133C690.927 38.5232 689.169 38.3281 687.606 38.3281C686.238 38.1331 684.773 38.0355 683.21 38.0355C675.005 38.0355 668.753 39.8885 664.455 43.5946C660.352 47.1055 658.301 52.372 658.301 59.3939V61.7346H692.587V99.7701H658.301V221.484H614.344Z" fill="black"/>
<path d="M782.675 224.995C766.85 224.995 752.393 221.386 739.303 214.169C726.409 206.952 716.055 197.102 708.24 184.619C700.621 171.94 696.811 157.604 696.811 141.609C696.811 125.42 700.621 111.083 708.24 98.5998C716.055 86.1163 726.409 76.2661 739.303 69.0491C752.393 61.8321 766.85 58.2236 782.675 58.2236C798.499 58.2236 812.859 61.8321 825.753 69.0491C838.647 76.2661 848.903 86.1163 856.523 98.5998C864.337 111.083 868.245 125.42 868.245 141.609C868.245 157.604 864.337 171.94 856.523 184.619C848.903 197.102 838.647 206.952 825.753 214.169C812.859 221.386 798.499 224.995 782.675 224.995ZM782.675 185.496C790.685 185.496 797.62 183.643 803.481 179.937C809.537 176.231 814.226 171.062 817.547 164.431C821.064 157.799 822.822 150.192 822.822 141.609C822.822 133.027 821.064 125.517 817.547 119.08C814.226 112.449 809.537 107.28 803.481 103.574C797.62 99.6726 790.685 97.722 782.675 97.722C774.665 97.722 767.631 99.6726 761.575 103.574C755.519 107.28 750.732 112.449 747.216 119.08C743.895 125.517 742.234 133.027 742.234 141.609C742.234 150.192 743.895 157.799 747.216 164.431C750.732 171.062 755.519 176.231 761.575 179.937C767.631 183.643 774.665 185.496 782.675 185.496Z" fill="black"/>
<path d="M885.349 221.484V0H929.306V221.484H885.349Z" fill="black"/>
<path d="M952.682 221.484V61.7346H996.639V221.484H952.682ZM952.682 47.3981V3.51096H996.639V47.3981H952.682Z" fill="black"/>
<path d="M1099.43 224.995C1083.61 224.995 1069.15 221.386 1056.06 214.169C1043.16 206.952 1032.81 197.102 1025 184.619C1017.38 171.94 1013.57 157.604 1013.57 141.609C1013.57 125.42 1017.38 111.083 1025 98.5998C1032.81 86.1163 1043.16 76.2661 1056.06 69.0491C1069.15 61.8321 1083.61 58.2236 1099.43 58.2236C1115.25 58.2236 1129.61 61.8321 1142.51 69.0491C1155.4 76.2661 1165.66 86.1163 1173.28 98.5998C1181.09 111.083 1185 125.42 1185 141.609C1185 157.604 1181.09 171.94 1173.28 184.619C1165.66 197.102 1155.4 206.952 1142.51 214.169C1129.61 221.386 1115.25 224.995 1099.43 224.995ZM1099.43 185.496C1107.44 185.496 1114.38 183.643 1120.24 179.937C1126.29 176.231 1130.98 171.062 1134.3 164.431C1137.82 157.799 1139.58 150.192 1139.58 141.609C1139.58 133.027 1137.82 125.517 1134.3 119.08C1130.98 112.449 1126.29 107.28 1120.24 103.574C1114.38 99.6726 1107.44 97.722 1099.43 97.722C1091.42 97.722 1084.39 99.6726 1078.33 103.574C1072.27 107.28 1067.49 112.449 1063.97 119.08C1060.65 125.517 1058.99 133.027 1058.99 141.609C1058.99 150.192 1060.65 157.799 1063.97 164.431C1067.49 171.062 1072.27 176.231 1078.33 179.937C1084.39 183.643 1091.42 185.496 1099.43 185.496Z" fill="black"/>
</svg>
