<?xml version="1.0" encoding="UTF-8"?>
<svg id="Calque_2" data-name="Calque 2" xmlns="http://www.w3.org/2000/svg" viewBox="0 0 506.51 130.84">
  <defs>
    <style>
      .cls-1 {
        fill: #0305f0;
      }
    </style>
  </defs>
  <g id="Calque_2-2" data-name="Calque 2">
    <g>
      <path class="cls-1" d="M23.99,94.19l-6.2,35.17H0L16.17,36.79h-7.41l.27-1.08h25.06l-2.7,15.09,1.48-3.37c3.1-7.41,9.7-13.07,19.27-13.07,13.47,0,19,9.03,19,22.77,0,22.5-11.72,45.28-33.69,45.28-7.01,0-11.59-3.64-13.47-8.22ZM30.59,55.79l-6.2,35.98c1.35,4.31,4.18,8.08,9.16,8.08,15.23,0,19.67-28.84,19.67-44.33,0-9.97-1.35-17.65-8.09-17.65-4.85,0-9.16,4.99-11.32,10.24l-3.23,7.68Z"/>
      <path class="cls-1" d="M80.04,73.71c0-21.69,15.36-39.35,37.06-39.35,17.65,0,27.62,10.11,27.62,27.62,0,22.37-15.23,40.42-37.06,40.42-17.38,0-27.62-10.51-27.62-28.7ZM126.39,53.23c0-10.78-2.29-17.79-9.57-17.79-12.67,0-18.46,27.49-18.46,48.1,0,10.65,2.29,17.79,9.57,17.79,12.94,0,18.46-27.49,18.46-48.11Z"/>
      <path class="cls-1" d="M179.62,35.71l-1.08,18.19h.27c5.93-15.9,11.18-19.54,18.86-19.54,7.28,0,10.91,3.64,10.91,9.84,0,8.09-8.89,13.61-19.27,14.55l-.27-.4c3.91-3.37,5.79-8.62,5.79-13.21,0-2.83-.81-5.12-3.77-5.12-4.45,0-7.41,3.77-12.53,17.38l-7.68,43.66h-17.79l11.32-64.27h-7.41l.27-1.08h22.37Z"/>
      <path class="cls-1" d="M216.27,35.71h.94c9.03,0,18.73-7.01,25.33-16.3h1.08l-2.83,16.3h12.53l-.27,1.08h-12.53l-7.81,44.87c-.41,2.96-.67,5.52-.67,7.68,0,6.47,2.29,9.16,6.33,9.16,2.7,0,4.58-1.08,6.74-3.77l.67.4c-3.64,5.39-9.57,7.28-16.04,7.28-9.16,0-15.23-4.72-15.23-15.23,0-1.89.13-3.91.54-5.93l7.68-44.47h-6.74l.27-1.08Z"/>
      <path class="cls-1" d="M237.96,130.84l.27-1.08c9.03-1.75,13.88-10.65,16.03-22.77l12.4-70.2h-10.51l.27-1.08h10.38c2.7-13.21,16.17-35.71,35.84-35.71,8.76,0,15.09,2.56,15.09,8.22,0,7.95-10.51,13.34-19.81,13.34l-.27-.4c4.58-2.7,7.28-9.84,7.28-14.69,0-2.83-.94-5.12-3.91-5.12-9.7,0-14.15,22.1-16.3,34.36h12.94l-.27,1.08h-12.94l-11.32,64.27c-3.37,19-15.36,27.49-35.17,29.78Z"/>
      <path class="cls-1" d="M296.04,73.71c0-21.69,15.36-39.35,37.06-39.35,17.65,0,27.62,10.11,27.62,27.62,0,22.37-15.23,40.42-37.06,40.42-17.38,0-27.62-10.51-27.62-28.7ZM342.39,53.23c0-10.78-2.29-17.79-9.57-17.79-12.67,0-18.46,27.49-18.46,48.1,0,10.65,2.29,17.79,9.57,17.79,12.94,0,18.46-27.49,18.46-48.11Z"/>
      <path class="cls-1" d="M385.51,1.08h-7.41l.27-1.08h25.06l-15.9,90.82c-.67,3.5-.81,5.26-.81,6.33,0,1.62.54,2.83,2.96,2.83h3.64l-.13,1.08h-15.23c-6.74,0-8.89-2.29-8.89-5.39,0-.67.14-1.62.41-2.83L385.51,1.08Z"/>
      <path class="cls-1" d="M423.64,90.82c-.67,3.64-.94,5.26-.94,6.33,0,1.62.67,2.83,3.1,2.83h3.64l-.14,1.08h-15.36c-6.6,0-8.76-2.29-8.76-5.39,0-.67.13-1.62.27-2.83l9.84-56.06h-7.41l.27-1.08h25.2l-9.7,55.11ZM419.06,15.09c0-6.33,5.12-11.72,11.18-11.72,4.18,0,7.14,2.83,7.14,6.74,0,6.06-5.25,11.45-11.32,11.45-4.04,0-7.01-2.7-7.01-6.47Z"/>
      <path class="cls-1" d="M441.83,73.71c0-21.69,15.36-39.35,37.06-39.35,17.65,0,27.62,10.11,27.62,27.62,0,22.37-15.23,40.42-37.06,40.42-17.38,0-27.62-10.51-27.62-28.7ZM488.18,53.23c0-10.78-2.29-17.79-9.57-17.79-12.67,0-18.46,27.49-18.46,48.1,0,10.65,2.29,17.79,9.57,17.79,12.94,0,18.46-27.49,18.46-48.11Z"/>
    </g>
  </g>
</svg>