<?xml version="1.0" encoding="UTF-8"?>
<svg id="Calque_2" data-name="Calque 2" xmlns="http://www.w3.org/2000/svg" viewBox="0 0 477.78 130.84">
  <defs>
    <style>
      .cls-1 {
        fill: #0305f0;
      }
    </style>
  </defs>
  <g id="Calque_1-2" data-name="Calque 1">
    <g>
      <path class="cls-1" d="M46.81,34.4c-9.04,0-15.92,5.8-19.02,13.08l-1.35,3.1,2.7-14.84H7.96l-.27,1.08h8.5L0,129.49h12.81l6.07-34.94c2.02,4.45,6.74,7.96,13.89,7.96,21.58,0,33.18-23.07,33.18-44.92,0-14.03-5.53-23.2-19.15-23.2ZM30.35,100.49c-5.93,0-9.58-3.78-11.06-8.23l6.34-36.69,3.1-7.42c2.43-5.8,7.96-11.06,13.49-11.06,9.17,0,10.66,8.63,10.66,19.02,0,17.13-5.53,44.38-22.53,44.38Z"/>
      <path class="cls-1" d="M110.61,34.4c-20.91,0-34.94,19.15-34.94,40.47,0,17.54,9.44,27.65,25.49,27.65,20.91,0,34.8-19.42,34.8-41.14,0-17.13-9.17-26.98-25.36-26.98ZM101.44,101.44c-9.31,0-12.41-7.69-12.41-20.23,0-19.96,6.88-45.73,21.31-45.73,9.31,0,12.27,7.69,12.27,20.23,0,19.96-6.61,45.73-21.18,45.73Z"/>
      <path class="cls-1" d="M185.2,34.4c-7.15,0-12.41,3.78-18.34,20.1h-.27l1.89-18.75h-19.02l-.27,1.08h8.5l-11.33,64.34h12.81l7.69-43.7c5.53-14.97,9.04-18.88,13.62-18.88,3.24,0,4.59,2.43,4.59,5.4,0,4.59-1.89,9.31-5.53,12l.27.4c8.63-.94,15.65-5.67,15.65-13.08,0-5.53-3.51-8.9-10.25-8.9Z"/>
      <path class="cls-1" d="M229.45,96.31l-.67-.4c-2.02,2.56-4.05,3.64-7.01,3.64-4.45,0-6.74-2.97-6.74-9.17,0-2.02.27-4.45.67-7.15l8.09-46.4h13.35l.27-1.08h-13.35l2.83-16.32h-1.21c-4.86,9.71-11.2,16.32-19.96,16.32h-1.48l-.27,1.08h7.15l-8.09,46.13c-.27,1.89-.4,3.78-.4,5.53,0,9.17,4.99,14.03,13.35,14.03,5.67,0,10.39-1.75,13.49-6.2Z"/>
      <path class="cls-1" d="M283.67,1.21c3.51,0,4.45,2.56,4.45,5.13,0,4.32-2.29,10.25-7.01,12.54l.27.4c7.55,0,16.46-4.59,16.46-11.87,0-5.13-5.67-7.42-12.68-7.42-19.29,0-30.62,22.66-33.05,35.75h-10.52l-.27,1.08h10.52l-12.41,70.28c-2.16,12.14-7.01,20.91-16.05,22.66l-.27,1.08c16.59-1.89,26.84-10.93,29.94-28.6l11.6-65.42h12.54l.27-1.08h-12.68c2.16-12.54,7.15-34.53,18.88-34.53Z"/>
      <path class="cls-1" d="M313.35,34.4c-20.91,0-34.94,19.15-34.94,40.47,0,17.54,9.44,27.65,25.49,27.65,20.91,0,34.8-19.42,34.8-41.14,0-17.13-9.17-26.98-25.36-26.98ZM304.18,101.44c-9.31,0-12.41-7.69-12.41-20.23,0-19.96,6.88-45.73,21.31-45.73,9.31,0,12.27,7.69,12.27,20.23,0,19.96-6.61,45.73-21.18,45.73Z"/>
      <path class="cls-1" d="M378.63,0h-21.18l-.27,1.08h8.5l-16.05,91.86c-.27,1.62-.41,2.83-.41,3.64,0,2.7,1.75,4.59,7.15,4.59h13.22l.13-1.08h-4.99c-2.16,0-2.83-.94-2.83-2.56,0-.94.13-2.56.67-5.8L378.63,0Z"/>
      <path class="cls-1" d="M407.1,35.75h-21.18l-.27,1.08h8.5l-9.85,56.11c-.27,1.62-.54,2.83-.54,3.64,0,2.7,1.75,4.59,7.15,4.59h13.22l.13-1.08h-4.99c-2.16,0-2.83-.94-2.83-2.56,0-.94.13-2.29.67-5.8l9.98-55.98Z"/>
      <path class="cls-1" d="M405.75,5.67c-4.72,0-8.63,4.18-8.63,9.04,0,3.1,2.29,5.26,5.53,5.26,4.72,0,8.77-4.18,8.77-8.9,0-3.24-2.29-5.4-5.67-5.4Z"/>
      <path class="cls-1" d="M452.42,34.4c-20.91,0-34.94,19.15-34.94,40.47,0,17.54,9.44,27.65,25.49,27.65,20.91,0,34.8-19.42,34.8-41.14,0-17.13-9.17-26.98-25.36-26.98ZM443.25,101.44c-9.31,0-12.41-7.69-12.41-20.23,0-19.96,6.88-45.73,21.31-45.73,9.31,0,12.27,7.69,12.27,20.23,0,19.96-6.61,45.73-21.18,45.73Z"/>
    </g>
  </g>
</svg>